<?xml version="1.0" encoding="iso-8859-1"?>
<!-- Generator: Adobe Illustrator 16.0.0, SVG Export Plug-In . SVG Version: 6.00 Build 0)  -->
<!DOCTYPE svg PUBLIC "-//W3C//DTD SVG 1.1//EN" "http://www.w3.org/Graphics/SVG/1.1/DTD/svg11.dtd">
<svg version="1.1" id="Capa_1" xmlns="http://www.w3.org/2000/svg" xmlns:xlink="http://www.w3.org/1999/xlink" x="0px" y="0px"
	 width="48.023px" height="48.023px" viewBox="0 0 48.023 48.023" style="enable-background:new 0 0 48.023 48.023;"
	 xml:space="preserve">
<g>
	<g>
		<path style="fill:#fff;" d="M24.012,10.219c0.838,0,1.519-0.681,1.519-1.519V3.257c0-0.838-0.681-1.519-1.519-1.519c-0.837,0-1.519,0.681-1.519,1.519
			V8.7C22.493,9.538,23.175,10.219,24.012,10.219z"/>
		<path style="fill:#fff;" d="M10.882,14.768c0.286,0.287,0.667,0.444,1.073,0.444c0.406,0,0.787-0.157,1.074-0.445c0.592-0.592,0.592-1.555,0-2.147
			l-3.85-3.849C8.892,8.484,8.512,8.327,8.106,8.327c-0.406,0-0.788,0.157-1.074,0.445C6.745,9.058,6.587,9.439,6.587,9.844
			c0,0.406,0.158,0.787,0.445,1.074L10.882,14.768z"/>
		<path style="fill:#fff;" d="M37.141,36.73c-0.287-0.284-0.668-0.441-1.072-0.441s-0.787,0.157-1.074,0.444c-0.287,0.286-0.443,0.668-0.441,1.071
			c0,0.405,0.154,0.787,0.443,1.072l3.85,3.852c0.287,0.287,0.668,0.445,1.072,0.445c0.406,0,0.787-0.158,1.074-0.445
			c0.59-0.594,0.59-1.555,0-2.146L37.141,36.73z"/>
		<path style="fill:#fff;" d="M8.479,25.75c0-0.838-0.681-1.52-1.518-1.52H1.518C0.681,24.23,0,24.913,0,25.75c0,0.837,0.681,1.519,1.518,1.519h5.443
			C7.799,27.267,8.479,26.587,8.479,25.75z"/>
		<path style="fill:#fff;" d="M46.506,24.23h-5.443c-0.838,0-1.521,0.682-1.521,1.52c0,0.837,0.683,1.519,1.521,1.519h5.443
			c0.836,0,1.518-0.682,1.518-1.519C48.024,24.913,47.342,24.23,46.506,24.23z"/>
		<path style="fill:#fff;" d="M11.955,36.289c-0.405,0-0.787,0.157-1.074,0.444l-3.849,3.849c-0.592,0.594-0.592,1.557,0,2.146
			c0.286,0.287,0.667,0.445,1.073,0.445c0.405,0,0.787-0.158,1.074-0.445l3.849-3.852c0.287-0.285,0.444-0.667,0.444-1.072
			c0-0.403-0.158-0.785-0.445-1.074C12.742,36.446,12.361,36.289,11.955,36.289z"/>
		<path style="fill:#fff;" d="M36.068,15.211c0.404,0,0.787-0.157,1.074-0.444l3.85-3.851c0.285-0.285,0.443-0.666,0.443-1.072
			c0-0.404-0.158-0.787-0.445-1.074c-0.285-0.286-0.666-0.443-1.072-0.443c-0.404,0-0.785,0.157-1.072,0.444l-3.85,3.849
			c-0.289,0.287-0.443,0.668-0.443,1.072c0,0.406,0.154,0.788,0.443,1.075C35.281,15.056,35.661,15.211,36.068,15.211z"/>
		<path style="fill:#fff;" d="M24.072,14.68c-6.093,0-11.05,4.956-11.05,11.048c0,4.385,2.51,9.209,5.966,11.682v6.456c0,0.678,0.458,1.271,1.115,1.44
			l3.596,0.933c0.123,0.03,0.248,0.047,0.373,0.047s0.25-0.017,0.373-0.047l3.596-0.933c0.656-0.17,1.115-0.766,1.115-1.44V37.41
			c3.457-2.473,5.965-7.298,5.965-11.682C35.12,19.636,30.163,14.68,24.072,14.68z M26.178,42.711L26.178,42.711l-2.105,0.546
			l-2.105-0.546v-1.815h4.21V42.711z M26.805,35.386c-0.584,0.336-0.871,1.021-0.695,1.674c0.018,0.068,0.039,0.137,0.066,0.201
			v1.398h-4.21v-1.398c0.028-0.064,0.051-0.134,0.069-0.201c0.173-0.65-0.113-1.34-0.698-1.674c-2.993-1.72-5.337-5.959-5.337-9.656
			c0-4.449,3.62-8.07,8.073-8.07c4.449,0,8.068,3.621,8.068,8.07C32.143,29.427,29.799,33.667,26.805,35.386z"/>
	</g>
</g>
<g>
</g>
<g>
</g>
<g>
</g>
<g>
</g>
<g>
</g>
<g>
</g>
<g>
</g>
<g>
</g>
<g>
</g>
<g>
</g>
<g>
</g>
<g>
</g>
<g>
</g>
<g>
</g>
<g>
</g>
</svg>
