<?xml version="1.0" encoding="UTF-8" standalone="no"?>
<svg
   xmlns:dc="http://purl.org/dc/elements/1.1/"
   xmlns:cc="http://creativecommons.org/ns#"
   xmlns:rdf="http://www.w3.org/1999/02/22-rdf-syntax-ns#"
   xmlns:svg="http://www.w3.org/2000/svg"
   xmlns="http://www.w3.org/2000/svg"
   viewBox="0 0 191.205 94.001251"
   height="94.001251"
   width="191.205"
   xml:space="preserve"
   version="1.1"
   id="svg2"><metadata
     id="metadata8"><rdf:RDF><cc:Work
         rdf:about=""><dc:format>image/svg+xml</dc:format><dc:type
           rdf:resource="http://purl.org/dc/dcmitype/StillImage" /></cc:Work></rdf:RDF></metadata><defs
     id="defs6"><clipPath
       id="clipPath16"
       clipPathUnits="userSpaceOnUse"><path
         id="path18"
         d="m 0,75.201 152.964,0 L 152.964,0 0,0 0,75.201 Z" /></clipPath></defs><g
     transform="matrix(1.25,0,0,-1.25,0,94.00125)"
     id="g10"><g
       id="g12"><g
         clip-path="url(#clipPath16)"
         id="g14"><g
           transform="translate(2.157,24.681)"
           id="g20"><path
             id="path22"
             style="fill:#808080;fill-opacity:1;fill-rule:nonzero;stroke:none"
             d="m 0,0 c -0.273,0.814 -0.771,1.041 -1.587,1.041 l -0.588,0 0,2.674 1.584,0 c 2.176,0 2.9,-0.4 3.6,-2.539 l 4.666,-14.45 c 0.359,-1.1 0.7,-2.4 0.7,-2.446 l 0.09,0 c 0,0 0.365,1.359 0.728,2.446 l 5.571,16.897 3.08,0 5.573,-16.897 c 0.36,-1.1 0.7,-2.4 0.7,-2.446 l 0.091,0 c 0,0 0.271,1.313 0.633,2.446 l 4.712,14.45 c 0.68,2.13 1.403,2.539 3.578,2.539 l 1.586,0 0,-2.674 -0.633,0 C 33.313,1.041 32.771,0.814 32.497,0 l -6.522,-19.073 -3.397,0 -5.591,16.218 c -0.363,1.132 -0.682,2.448 -0.682,2.448 l -0.089,0 c 0,0 -0.316,-1.316 -0.726,-2.448 l -5.526,-16.218 -3.442,0 L 0,0 Z" /></g><g
           transform="translate(46.027,7.692)"
           id="g24"><path
             id="path26"
             style="fill:#808080;fill-opacity:1;fill-rule:nonzero;stroke:none"
             d="m 0,0 c 4.349,0 6.977,4.531 6.977,8.474 l 0,1.039 -1.314,0 C 2.084,9.513 -5.072,9.424 -5.072,4.303 -5.072,2.134 -3.427,0.034 -0.027,0 L 0,0 Z m 5.71,11.958 1.267,0 0,0.274 c 0,4.757 -1.722,6.432 -5.889,6.432 -1.134,0 -4.44,-0.317 -4.44,-2 l 0,-1.45 -2.943,0 0,2.174 c 0,3.17 5.436,3.852 7.429,3.852 7.202,0 8.9,-3.9 8.9,-8.745 l 0,-10.916 c 0,-0.7 0.4,-1 1,-1 l 1.903,0 0,-2.672 -3.127,0 c -1.948,0 -2.717,0.86 -2.717,2.718 0,0.996 0.046,1.679 0.046,1.679 l -0.091,0 c 0.045,0 -1.857,-4.939 -7.565,-4.9 -3.808,0 -7.749,2.221 -7.749,6.751 0.02,7.579 10.039,7.779 13.939,7.803 l 0.037,0 z" /></g><g
           transform="translate(62.709,33.788)"
           id="g28"><path
             id="path30"
             style="fill:#808080;fill-opacity:1;fill-rule:nonzero;stroke:none"
             d="m 0,0 c 0,0.634 -0.362,0.995 -0.996,0.995 l -1.902,0 0,2.672 3.216,0 c 1.948,0 2.8,-0.8 2.8,-2.762 l 0,-25.414 c 0,-0.7 0.4,-1 1,-0.999 l 1.902,0 0,-2.672 -3.216,0 c -1.95,0 -2.765,0.816 -2.765,2.764 L 0.039,0 0,0 Z" /></g><g
           transform="translate(72.591,33.788)"
           id="g32"><path
             id="path34"
             style="fill:#808080;fill-opacity:1;fill-rule:nonzero;stroke:none"
             d="m 0,0 c 0,0.634 -0.36,0.995 -0.994,0.995 l -1.905,0 0,2.672 3.216,0 c 1.948,0 2.8,-0.7 2.8,-2.626 l 0,-15.132 2.358,0 c 0.859,0 1.947,0.271 2.582,1.087 l 5.844,7.612 3.761,0 -6.569,-8.3 c -1.134,-1.402 -1.722,-1.631 -1.722,-1.631 l 0,-0.089 c 0,0 0.7,-0.3 1.4,-1.678 l 4.123,-7.383 c 0.405,-0.8 0.9,-1 2.1,-0.999 l 1.223,0 0,-2.672 -2.13,0 c -2.267,0 -2.9,0.362 -3.941,2.266 l -4.529,8.153 c -0.5,0.907 -1.586,0.998 -2.4,0.998 l -2.138,0 0,-11.417 -3.079,0 L 0,0 Z" /></g><g
           transform="translate(91.6,58.526)"
           id="g36"><path
             id="path38"
             style="fill:#808080;fill-opacity:1;fill-rule:nonzero;stroke:none"
             d="m 0,0 c 1.767,0 3.2,-1.433 3.2,-3.2 0,-1.767 -1.433,-3.2 -3.2,-3.2 -1.767,0 -3.2,1.433 -3.2,3.2 0,1.767 1.433,3.2 3.2,3.2" /></g><g
           transform="translate(139.3,25.726)"
           id="g40"><path
             id="path42"
             style="fill:#808080;fill-opacity:1;fill-rule:nonzero;stroke:none"
             d="M 0,0 C 2.485,0 4.5,-2.015 4.5,-4.5 4.5,-6.985 2.485,-9 0,-9 c -2.485,0 -4.5,2.015 -4.5,4.5 0,2.485 2.015,4.5 4.5,4.5" /></g><g
           transform="translate(140.3,66.326)"
           id="g44"><path
             id="path46"
             style="fill:#808080;fill-opacity:1;fill-rule:nonzero;stroke:none"
             d="M 0,0 C 2.485,0 4.5,-2.015 4.5,-4.5 4.5,-6.985 2.485,-9 0,-9 c -2.485,0 -4.5,2.015 -4.5,4.5 0,2.485 2.015,4.5 4.5,4.5" /></g><g
           transform="translate(103.3,74.026)"
           id="g48"><path
             id="path50"
             style="fill:#808080;fill-opacity:1;fill-rule:nonzero;stroke:none"
             d="m 0,0 c 2.596,0 4.7,-2.104 4.7,-4.7 0,-2.596 -2.104,-4.7 -4.7,-4.7 -2.596,0 -4.7,2.104 -4.7,4.7 0,2.596 2.104,4.7 4.7,4.7" /></g><g
           transform="translate(138.8,47.026)"
           id="g52"><path
             id="path54"
             style="fill:#808080;fill-opacity:1;fill-rule:nonzero;stroke:none"
             d="m 0,0 c 1.767,0 3.2,-1.433 3.2,-3.2 0,-1.767 -1.433,-3.2 -3.2,-3.2 -1.767,0 -3.2,1.433 -3.2,3.2 0,1.767 1.433,3.2 3.2,3.2" /></g><g
           transform="translate(148.7,37.026)"
           id="g56"><path
             id="path58"
             style="fill:#808080;fill-opacity:1;fill-rule:nonzero;stroke:none"
             d="m 0,0 c 1.767,0 3.2,-1.433 3.2,-3.2 0,-1.767 -1.433,-3.2 -3.2,-3.2 -1.767,0 -3.2,1.433 -3.2,3.2 0,1.767 1.433,3.2 3.2,3.2" /></g><g
           transform="translate(122.912,36.314)"
           id="g60"><path
             id="path62"
             style="fill:#808080;fill-opacity:1;fill-rule:nonzero;stroke:none"
             d="m 0,0 c 0,0.955 -0.477,1.405 -1.487,1.405 -0.327,0 -0.56,-0.026 -0.806,-0.108 l 0,-2.771 0.438,0 C -0.464,-1.488 -0.012,-0.988 -0.012,0 L 0,0 Z" /></g><g
           transform="translate(119.2,65.626)"
           id="g64"><path
             id="path66"
             style="fill:#808080;fill-opacity:1;fill-rule:nonzero;stroke:none"
             d="m 0,0 c 1.767,0 3.2,-1.433 3.2,-3.2 0,-1.767 -1.433,-3.2 -3.2,-3.2 -1.767,0 -3.2,1.433 -3.2,3.2 0,1.767 1.433,3.2 3.2,3.2" /></g><g
           transform="translate(102.292,38.826)"
           id="g68"><path
             id="path70"
             style="fill:#808080;fill-opacity:1;fill-rule:nonzero;stroke:none"
             d="m 0,0 2.225,0 0,-3.877 2.376,0 0,3.877 2.225,0 0,-9.392 -2.225,0 0,4.068 -2.376,0 0,-4.068 L 0,-9.392 0,0 Z m 8.263,0 2.225,0 0,-6.607 c 0,-0.8 0.5,-1.3 1.1,-1.256 0.6,0.044 1.118,0.424 1.118,1.27 l 0,6.593 2.048,0 0,-6.62 c 0,-1.789 -1.378,-2.922 -3.262,-2.9 -1.871,0 -3.263,1.12 -3.263,2.922 l 0,6.598 0.034,0 z m 7.962,-0.41 c 0.627,0.328 1.666,0.547 2.894,0.547 2.472,0 3.6,-1.1 3.6,-2.498 0,-1.229 -0.928,-1.884 -1.678,-2.074 l 0,-0.028 c 0.846,-0.2 1.9,-1 1.9,-2.3 0,-1.869 -1.446,-2.729 -3.78,-2.729 -1.297,0 -2.307,0.19 -3.003,0.545 l 0,8.537 0.067,0 z m -4.721,-22.106 c 9.838,0 17.813,7.976 17.813,17.813 0,9.837 -7.976,17.813 -17.813,17.813 C 1.667,13.11 -6.309,5.134 -6.309,-4.703 -6.308,-14.5 1.708,-22.5 11.508,-22.516 l -0.004,0 z" /></g><g
           transform="translate(123.09,32.11)"
           id="g72"><path
             id="path74"
             style="fill:#808080;fill-opacity:1;fill-rule:nonzero;stroke:none"
             d="m 0,0 c 0,1.119 -0.52,1.665 -2.034,1.665 l -0.438,0 0,-3.017 c 0.219,-0.1 0.5,-0.1 0.8,-0.136 C -0.601,-1.484 0.01,-1.084 0.01,0 L 0,0 Z" /></g><g
           transform="translate(113.796,52.903)"
           id="g76"><path
             id="path78"
             style="fill:#808080;fill-opacity:1;fill-rule:nonzero;stroke:none"
             d="m 0,0 c 10.355,0 18.8,-8.4 18.8,-18.8 0,-10.356 -8.424,-18.78 -18.779,-18.78 -10.355,0 -18.779,8.424 -18.779,18.78 C -18.779,-8.377 -10.396,0.023 0.004,0 L 0,0 Z m 1.579,9.521 c 0,2.087 1.697,3.784 3.784,3.784 2.086,0 3.8,-1.7 3.8,-3.8 0,-2.1 -1.699,-3.784 -3.785,-3.784 -2.102,0.002 -3.774,1.702 -3.774,3.8 l -0.025,0 z M -22.149,-1.377 c -2.086,0 -3.783,1.698 -3.783,3.785 0,2.085 1.697,3.783 3.783,3.783 2.087,0 3.8,-1.7 3.8,-3.8 -0.016,-2.068 -1.747,-3.768 -3.847,-3.78 l 0.047,0.012 z m 11.698,12.282 c -3.028,0 -5.491,2.464 -5.491,5.491 0,3.028 2.463,5.491 5.491,5.491 3.027,0 5.5,-2.5 5.5,-5.491 -0.01,-3.073 -2.445,-5.473 -5.545,-5.491 l 0.045,0 z M 21.387,8.904 c 0,2.844 2.313,5.158 5.157,5.158 2.846,0 5.2,-2.3 5.2,-5.158 0,-2.846 -2.314,-5.16 -5.16,-5.2 -2.883,0.019 -5.18,2.319 -5.18,5.2 l -0.017,0 z m 3.65,-14.184 c 2.087,0 3.8,-1.7 3.8,-3.8 0,-2.087 -1.698,-3.784 -3.785,-3.784 -2.086,0 -3.784,1.697 -3.784,3.784 -0.016,2.103 1.636,3.803 3.736,3.8 l 0.033,0 z m 9.821,-10.064 c 2.086,0 3.8,-1.7 3.8,-3.784 0,-2.085 -1.698,-3.783 -3.784,-3.8 -2.086,-0.017 -3.784,1.698 -3.784,3.783 -0.016,2.068 1.714,3.768 3.814,3.801 l -0.046,0 z m -9.354,-11.133 c 2.845,0 5.2,-2.3 5.2,-5.158 0,-2.846 -2.314,-5.16 -5.159,-5.16 -2.846,0 -5.159,2.314 -5.159,5.16 -0.041,2.858 2.318,5.158 5.118,5.15 l 0,0.008 z m -32.596,-11.045 2.604,-0.794 c 1.234,-0.3 2.5,-0.4 3.8,-0.489 l 2.724,0.069 c 0.979,0.099 1.929,0.294 2.861,0.528 l 2.613,0.845 c 1.333,0.542 2.599,1.217 3.772,2.02 l 2.134,1.706 c 1.47,1.331 2.738,2.87 3.764,4.578 l 2.765,-1.298 c -0.097,-0.416 -0.159,-0.843 -0.159,-1.286 0,-3.1 2.6,-5.7 5.7,-5.7 3.1,0 5.703,2.56 5.703,5.704 0,3.144 -2.559,5.702 -5.703,5.702 -1.724,0 -3.251,-0.783 -4.297,-1.994 l -2.755,1.295 c 0.753,1.757 1.255,3.645 1.476,5.618 l 10.938,0.226 c 0.655,-1.6 2.2,-2.7 4,-2.658 2.387,0 4.328,1.941 4.328,4.327 0,2.387 -1.941,4.328 -4.328,4.328 -2.022,0 -3.711,-1.399 -4.185,-3.276 l -10.637,-0.221 c -0.041,1.699 -0.294,3.344 -0.734,4.913 l 2.636,1.273 -0.043,0.088 c 0.79,-0.8 1.9,-1.4 3.1,-1.37 2.388,0 4.329,1.942 4.329,4.328 0,2.387 -1.941,4.328 -4.329,4.328 -2.386,0 -4.328,-1.941 -4.328,-4.328 0,-0.2 0,-0.4 0.1,-0.638 l -0.021,0.043 -2.358,-1.1 c -0.877,2.016 -2.086,3.848 -3.54,5.455 l 8.642,9.444 c 0.884,-0.6 1.9,-0.9 3,-0.9 3.146,0 5.704,2.558 5.704,5.704 0,3.145 -2.559,5.702 -5.704,5.702 -3.145,0 -5.701,-2.558 -5.701,-5.702 0,-1 0.3,-2 0.8,-2.841 l -0.018,0.014 -8.71,-9.5 c -2.306,1.942 -5.059,3.36 -8.074,4.11 l 0.964,4.565 c 2.183,0.219 3.899,2.046 3.899,4.285 0,2.386 -1.942,4.328 -4.329,4.328 -2.387,0 -4.328,-1.942 -4.328,-4.328 0,-1.6 0.8,-2.9 2.1,-3.69 L 2.099,1.223 C 1.392,1.298 0.675,1.342 -0.05,1.342 -1.551,1.342 -3.008,1.163 -4.417,0.85 l -3.351,10.257 c 1.95,1.001 3.301,3.011 3.301,5.351 0,3.328 -2.706,6.035 -6.034,6.035 -3.327,0 -6.035,-2.707 -6.035,-6.035 0,-3.328 2.708,-6 6,-6.035 0.03,0 0.06,0.008 0.09,0.008 l 3.387,-10.4 c -2.363,-0.881 -4.513,-2.189 -6.36,-3.84 l -4.873,4.46 c 0.244,0.541 0.388,1.139 0.388,1.771 0,2.386 -1.942,4.328 -4.329,4.328 -2.386,0 -4.327,-1.942 -4.327,-4.328 0,-2.4 1.9,-4.3 4.3,-4.329 0.762,0 1.467,0.214 2.089,0.562 l 4.813,-4.4 c -2.994,-3.504 -4.814,-8.042 -4.814,-13.003 0.111,-8.629 5.476,-15.929 13.076,-18.774 l 0.004,0 z" /></g></g></g></g></svg>
